<svg width="44" height="8" viewBox="0 0 44 8" fill="none" xmlns="http://www.w3.org/2000/svg">
<path d="M3.79888 2.18971C3.93192 1.78023 4.51122 1.78023 4.64426 2.18971L4.92006 3.03852C4.97956 3.22164 5.15021 3.34562 5.34275 3.34562H6.23525C6.66579 3.34562 6.8448 3.89656 6.49648 4.14963L5.77444 4.67423C5.61867 4.7874 5.55349 4.98801 5.61299 5.17113L5.88878 6.01994C6.02183 6.42941 5.55317 6.76991 5.20485 6.51685L4.48281 5.99225C4.32704 5.87908 4.11611 5.87908 3.96033 5.99225L3.23829 6.51685C2.88997 6.76991 2.42131 6.42941 2.55436 6.01994L2.83016 5.17113C2.88966 4.98801 2.82447 4.7874 2.6687 4.67423L1.94666 4.14963C1.59834 3.89656 1.77735 3.34562 2.2079 3.34562H3.10039C3.29294 3.34562 3.46358 3.22164 3.52308 3.03852L3.79888 2.18971Z" fill="#FFC806"/>
<path d="M12.6876 2.18971C12.8206 1.78023 13.3999 1.78023 13.5329 2.18971L13.8087 3.03852C13.8682 3.22164 14.0389 3.34562 14.2314 3.34562H15.1239C15.5545 3.34562 15.7335 3.89656 15.3852 4.14963L14.6631 4.67423C14.5073 4.7874 14.4422 4.98801 14.5017 5.17113L14.7775 6.01994C14.9105 6.42941 14.4418 6.76991 14.0935 6.51685L13.3715 5.99225C13.2157 5.87908 13.0048 5.87908 12.849 5.99225L12.127 6.51685C11.7786 6.76991 11.31 6.42941 11.443 6.01994L11.7188 5.17113C11.7783 4.98801 11.7131 4.7874 11.5574 4.67423L10.8353 4.14963C10.487 3.89656 10.666 3.34562 11.0966 3.34562H11.9891C12.1816 3.34562 12.3523 3.22164 12.4118 3.03852L12.6876 2.18971Z" fill="#FFC806"/>
<path d="M21.5767 2.18971C21.7098 1.78023 22.289 1.78023 22.4221 2.18971L22.6979 3.03852C22.7574 3.22164 22.928 3.34562 23.1206 3.34562H24.0131C24.4436 3.34562 24.6226 3.89656 24.2743 4.14963L23.5523 4.67423C23.3965 4.7874 23.3313 4.98801 23.3908 5.17113L23.6666 6.01994C23.7997 6.42941 23.331 6.76991 22.9827 6.51685L22.2606 5.99225C22.1049 5.87908 21.8939 5.87908 21.7382 5.99225L21.0161 6.51685C20.6678 6.76991 20.1991 6.42941 20.3322 6.01994L20.608 5.17113C20.6675 4.98801 20.6023 4.7874 20.4465 4.67423L19.7245 4.14963C19.3762 3.89656 19.5552 3.34562 19.9857 3.34562H20.8782C21.0708 3.34562 21.2414 3.22164 21.3009 3.03852L21.5767 2.18971Z" fill="#FFC806"/>
<path d="M30.4654 2.18971C30.5984 1.78023 31.1777 1.78023 31.3108 2.18971L31.5866 3.03852C31.6461 3.22164 31.8167 3.34562 32.0093 3.34562H32.9017C33.3323 3.34562 33.5113 3.89656 33.163 4.14963L32.4409 4.67423C32.2852 4.7874 32.22 4.98801 32.2795 5.17113L32.5553 6.01994C32.6883 6.42941 32.2197 6.76991 31.8714 6.51685L31.1493 5.99225C30.9935 5.87908 30.7826 5.87908 30.6268 5.99225L29.9048 6.51685C29.5565 6.76991 29.0878 6.42941 29.2209 6.01994L29.4967 5.17113C29.5562 4.98801 29.491 4.7874 29.3352 4.67423L28.6132 4.14963C28.2648 3.89656 28.4439 3.34562 28.8744 3.34562H29.7669C29.9594 3.34562 30.1301 3.22164 30.1896 3.03852L30.4654 2.18971Z" fill="#FFC806"/>
<path d="M39.3545 2.18971C39.4876 1.78023 40.0669 1.78023 40.1999 2.18971L40.4757 3.03852C40.5352 3.22164 40.7059 3.34562 40.8984 3.34562H41.7909C42.2215 3.34562 42.4005 3.89656 42.0521 4.14963L41.3301 4.67423C41.1743 4.7874 41.1092 4.98801 41.1687 5.17113L41.4444 6.01994C41.5775 6.42941 41.1088 6.76991 40.7605 6.51685L40.0385 5.99225C39.8827 5.87908 39.6718 5.87908 39.516 5.99225L38.794 6.51685C38.4456 6.76991 37.977 6.42941 38.11 6.01994L38.3858 5.17113C38.4453 4.98801 38.3801 4.7874 38.2244 4.67423L37.5023 4.14963C37.154 3.89656 37.333 3.34562 37.7636 3.34562H38.6561C38.8486 3.34562 39.0192 3.22164 39.0787 3.03852L39.3545 2.18971Z" fill="#FFC806"/>
</svg>
